{"glyphs":{" ":{"x_min":0,"x_max":0,"ha":140,"o":""},"A":{"x_min":0,"x_max":0,"ha":828,"o":"m 201 0 l 253 124 l 571 124 l 622 0 l 838 0 l 548 670 l 279 670 l -10 0 z m 363 387 l 406 500 l 419 500 l 463 387 l 502 293 l 324 293 z"},"B":{"x_min":0,"x_max":0,"ha":714,"o":"m 479 0 b 639 0 704 73 704 186 b 704 279 640 341 506 346 l 506 356 b 628 361 673 422 673 508 b 673 613 601 670 456 670 l 30 670 l 30 0 z m 217 501 l 431 501 b 470 501 485 489 485 458 b 485 427 474 416 436 416 l 217 416 z m 217 262 l 455 262 b 501 262 514 253 514 216 b 514 178 500 169 455 169 l 217 169 z"},"C":{"x_min":0,"x_max":0,"ha":770,"o":"m 390 -10 b 615 -10 750 97 750 276 l 750 293 l 540 293 l 540 276 b 540 200 504 170 393 170 b 257 170 220 202 220 335 b 220 468 257 500 393 500 b 504 500 540 470 540 394 l 540 377 l 750 377 l 750 394 b 750 573 615 680 390 680 b 157 680 20 544 20 335 b 20 126 157 -10 390 -10 z"},"D":{"x_min":0,"x_max":0,"ha":761,"o":"m 380 0 b 601 0 741 123 741 335 b 741 547 601 670 380 670 l 41 670 l 41 0 z m 380 501 b 499 501 540 486 540 335 b 540 184 499 169 380 169 l 229 169 l 229 501 z"},"E":{"x_min":0,"x_max":0,"ha":648,"o":"m 625 0 l 625 169 l 218 169 l 218 253 l 610 253 l 610 421 l 218 421 l 218 501 l 625 501 l 625 670 l 30 670 l 30 0 z"},"F":{"x_min":0,"x_max":0,"ha":648,"o":"m 218 0 l 218 233 l 614 233 l 614 401 l 218 401 l 218 501 l 629 501 l 629 670 l 30 670 l 30 0 z"},"G":{"x_min":0,"x_max":0,"ha":797,"o":"m 354 -10 b 511 -10 568 65 586 143 l 596 143 l 596 0 l 771 0 l 771 366 l 375 366 l 375 228 l 581 228 b 572 177 532 170 393 170 b 257 170 220 202 220 335 b 220 468 259 500 403 500 b 522 500 560 476 560 414 l 560 407 l 770 407 l 770 414 b 770 580 635 680 408 680 b 164 680 20 544 20 335 b 20 126 143 -10 354 -10 z"},"H":{"x_min":0,"x_max":0,"ha":748,"o":"m 218 0 l 218 252 l 530 252 l 530 0 l 718 0 l 718 670 l 530 670 l 530 421 l 218 421 l 218 670 l 30 670 l 30 0 z"},"I":{"x_min":0,"x_max":0,"ha":248,"o":"m 218 0 l 218 670 l 30 670 l 30 0 z"},"J":{"x_min":0,"x_max":0,"ha":664,"o":"m 323 -10 b 553 -10 638 90 638 277 l 638 670 l 438 670 l 438 279 b 438 196 430 172 323 172 b 215 172 210 198 210 289 l 210 313 l 10 313 l 10 287 b 10 93 94 -10 323 -10 z"},"K":{"x_min":0,"x_max":0,"ha":731,"o":"m 218 0 l 218 238 l 355 238 l 511 0 l 736 0 l 509 341 l 741 670 l 516 670 l 353 421 l 218 421 l 218 670 l 30 670 l 30 0 z"},"L":{"x_min":0,"x_max":0,"ha":625,"o":"m 605 0 l 605 169 l 218 169 l 218 670 l 30 670 l 30 0 z"},"M":{"x_min":0,"x_max":0,"ha":952,"o":"m 218 0 l 218 277 l 211 389 l 224 389 l 262 277 l 362 40 l 590 40 l 690 277 l 728 389 l 741 389 l 734 277 l 734 0 l 922 0 l 922 670 l 667 670 l 550 392 l 487 219 l 474 219 l 408 392 l 285 670 l 30 670 l 30 0 z"},"N":{"x_min":0,"x_max":0,"ha":736,"o":"m 218 0 l 218 262 l 210 390 l 223 390 l 308 258 l 506 0 l 706 0 l 706 670 l 518 670 l 518 411 l 527 265 l 514 265 l 416 419 l 230 670 l 30 670 l 30 0 z"},"O":{"x_min":0,"x_max":0,"ha":786,"o":"m 391 -10 b 630 -10 766 126 766 335 b 766 544 630 680 391 680 b 158 680 20 544 20 335 b 20 126 158 -10 391 -10 z m 391 170 b 255 170 220 202 220 335 b 220 468 255 500 391 500 b 527 500 566 468 566 335 b 566 202 527 170 391 170 z"},"P":{"x_min":0,"x_max":0,"ha":670,"o":"m 218 0 l 218 169 l 401 169 b 560 169 660 261 660 420 b 660 579 560 670 401 670 l 30 670 l 30 0 z m 380 501 b 446 501 473 488 473 420 b 473 351 446 338 380 338 l 218 338 l 218 501 z"},"Q":{"x_min":0,"x_max":0,"ha":786,"o":"m 702 -141 l 556 17 b 692 66 766 180 766 335 b 766 544 630 680 391 680 b 158 680 20 544 20 335 b 20 140 140 8 346 -8 l 455 -141 z m 391 170 b 255 170 220 202 220 335 b 220 468 255 500 391 500 b 527 500 566 468 566 335 b 566 202 527 170 391 170 z"},"R":{"x_min":0,"x_max":0,"ha":709,"o":"m 218 0 l 218 228 l 295 228 b 368 228 388 214 412 164 l 492 0 l 709 0 l 626 168 b 601 219 579 252 510 270 l 510 280 b 638 296 691 359 691 465 b 691 596 598 670 421 670 l 30 670 l 30 0 z m 218 501 l 419 501 b 474 501 494 488 494 435 b 494 378 474 368 419 368 l 218 368 z"},"S":{"x_min":0,"x_max":0,"ha":684,"o":"m 355 -10 b 581 -10 669 92 669 207 b 669 293 625 377 461 401 l 251 432 b 215 437 203 447 203 468 b 203 497 224 510 320 510 b 446 510 467 494 467 446 l 467 431 l 655 431 l 655 437 b 655 587 553 680 340 680 b 98 680 15 568 15 461 b 15 353 78 286 203 269 l 413 241 b 468 234 481 224 481 200 b 481 170 469 161 355 161 b 229 161 213 173 213 218 l 213 239 l 25 239 l 25 233 b 25 63 150 -10 355 -10 z"},"T":{"x_min":0,"x_max":0,"ha":691,"o":"m 440 0 l 440 501 l 676 501 l 676 670 l 15 670 l 15 501 l 252 501 l 252 0 z"},"U":{"x_min":0,"x_max":0,"ha":736,"o":"m 368 -10 b 602 -10 710 103 710 281 l 710 670 l 522 670 l 522 296 b 522 201 495 172 368 172 b 241 172 214 201 214 296 l 214 670 l 26 670 l 26 281 b 26 103 134 -10 368 -10 z"},"V":{"x_min":0,"x_max":0,"ha":788,"o":"m 529 0 l 798 670 l 572 670 l 403 190 l 390 190 l 217 670 l -10 670 l 259 0 z"},"W":{"x_min":0,"x_max":0,"ha":1123,"o":"m 428 0 l 508 287 l 555 497 l 568 497 l 612 287 l 682 0 l 961 0 l 1114 670 l 908 670 l 845 329 l 825 178 l 812 178 l 788 329 l 706 670 l 423 670 l 333 329 l 306 178 l 293 178 l 275 329 l 219 670 l 9 670 l 149 0 z"},"X":{"x_min":0,"x_max":0,"ha":800,"o":"m 236 0 l 390 218 l 403 218 l 564 0 l 810 0 l 558 325 l 558 338 l 810 670 l 564 670 l 411 453 l 398 453 l 236 670 l -10 670 l 243 342 l 243 329 l -10 0 z"},"Y":{"x_min":0,"x_max":0,"ha":766,"o":"m 474 0 l 474 212 l 781 670 l 547 670 l 446 511 l 389 417 l 376 417 l 319 511 l 218 670 l -15 670 l 286 213 l 286 0 z"},"Z":{"x_min":0,"x_max":0,"ha":697,"o":"m 672 0 l 672 169 l 293 169 l 293 182 l 666 501 l 666 670 l 31 670 l 31 501 l 382 501 l 382 488 l 25 169 l 25 0 z"}}}
